<svg xmlns="http://www.w3.org/2000/svg" viewBox="0 0 512.001 512.001">
  <path d="M511.993 152.156c-.003-.204-.015-.406-.031-.608-.009-.12-.016-.242-.03-.361-.023-.2-.056-.399-.091-.597-.02-.114-.034-.23-.058-.343-.062-.293-.136-.583-.224-.87-.036-.118-.083-.233-.124-.35-.061-.177-.122-.353-.193-.527-.053-.129-.114-.252-.173-.376-.072-.157-.145-.314-.226-.468-.065-.123-.137-.243-.207-.363-.086-.149-.174-.296-.268-.441-.077-.117-.159-.232-.24-.346-.099-.139-.2-.276-.307-.411-.089-.112-.182-.222-.276-.331-.059-.068-.112-.141-.174-.208L410.384 37.24c-1.902-2.081-4.592-3.267-7.411-3.267H109.026c-2.819 0-5.508 1.186-7.411 3.267L2.628 145.553c-.061.067-.115.14-.174.208-.094.108-.187.218-.276.331-.106.135-.208.272-.307.411-.081.114-.163.229-.24.346-.094.145-.182.293-.268.441-.07.12-.142.24-.207.363-.081.154-.153.31-.225.467-.058.127-.119.25-.173.378-.071.173-.13.348-.192.524-.041.117-.088.233-.125.352-.088.287-.162.577-.224.869-.024.113-.038.231-.058.345-.034.198-.068.396-.091.595-.013.119-.02.241-.03.361-.016.203-.027.406-.031.608.001.06-.007.115-.007.173 0 .066.009.13.01.195.004.201.014.402.03.603.01.123.019.248.033.37.022.193.054.383.087.575.021.122.039.246.065.367.042.197.096.391.151.585.03.107.053.218.087.324.09.285.194.568.31.846.052.125.114.245.172.367.074.159.146.319.229.475.07.132.149.256.224.384.083.141.164.282.254.419.083.127.175.249.264.372.069.095.13.194.204.286l245.951 315.663c1.961 2.517 4.914 3.87 7.925 3.869h.009c3.011 0 5.964-1.353 7.925-3.869l245.951-315.663c.072-.093.135-.192.204-.286.089-.123.181-.245.264-.372.09-.138.172-.278.254-.419.075-.128.154-.253.224-.385.083-.157.155-.316.229-.475.057-.122.119-.242.172-.367.116-.279.22-.561.31-.847.033-.105.056-.214.086-.32.054-.196.109-.391.152-.588.026-.121.044-.245.065-.367.034-.191.065-.383.087-.575.014-.122.023-.246.033-.37.016-.201.026-.402.03-.603.001-.065.01-.129.01-.195 0-.057-.008-.112-.008-.168zM398.549 54.051l80.637 88.235H377.525l-59.463-88.235h80.487zm-180.397 0h75.696l59.464 88.235H158.688l59.464-88.235zm-104.701 0h80.487l-59.463 88.235H32.814l80.637-88.235zM30.589 162.364h102.225l91.51 248.647L30.589 162.364zM256 438.947L154.208 162.364h203.583L256 438.947zm31.677-27.936l91.509-248.647h102.225L287.677 411.011z"/>
  <path d="M269.225 177.192h-64.258c-5.545 0-10.039 4.495-10.039 10.039s4.495 10.039 10.039 10.039h64.258c5.545 0 10.039-4.495 10.039-10.039s-4.495-10.039-10.039-10.039zM307.032 177.192c-12.919 0-12.941 20.078 0 20.078 12.92 0 12.942-20.078 0-20.078z"/>
</svg>
