<svg xmlns="http://www.w3.org/2000/svg" viewBox="0 0 511.999 511.999">
  <path d="M423.275 102.085c-.002-.308-.015-.617-.046-.927-.005-.049-.015-.097-.021-.146-.031-.275-.068-.549-.122-.824-.021-.105-.052-.207-.076-.311-.05-.214-.096-.429-.161-.641-.092-.306-.201-.608-.322-.905-.005-.011-.007-.022-.012-.033-.004-.01-.01-.019-.014-.029-.123-.296-.261-.587-.414-.87-.1-.189-.215-.365-.326-.545-.061-.098-.115-.201-.18-.297-.152-.227-.316-.442-.484-.654-.035-.043-.065-.09-.1-.134-.194-.236-.399-.459-.61-.674-.017-.017-.031-.036-.048-.053l-.009-.009c-.023-.023-.046-.047-.07-.07L328.31 3.021c-.024-.025-.049-.049-.074-.074l-.008-.008c-.014-.014-.03-.026-.044-.04-.218-.215-.445-.423-.684-.618-.041-.034-.085-.062-.127-.095-.214-.17-.431-.335-.661-.489-.092-.062-.191-.113-.285-.173-.184-.113-.364-.231-.557-.333-.277-.149-.56-.282-.849-.404-.017-.007-.032-.016-.049-.023-.006-.002-.012-.004-.018-.007-.301-.125-.608-.234-.921-.328-.197-.059-.396-.102-.593-.149-.12-.029-.239-.064-.361-.089-.253-.05-.507-.083-.761-.113-.07-.008-.141-.023-.211-.03-.284-.028-.568-.039-.851-.042-.042 0-.083-.006-.125-.006H190.87c-.032 0-.064.004-.097.005-.293.003-.586.015-.881.043-.064.006-.128.02-.192.027-.26.031-.52.064-.779.116-.12.024-.237.059-.356.087-.199.047-.399.09-.596.15-.312.094-.62.204-.922.328l-.018.006c-.017.007-.032.016-.049.023-.289.122-.573.255-.849.404-.193.102-.373.22-.557.333-.094.058-.192.11-.285.173-.23.154-.447.319-.661.489-.041.033-.086.061-.127.095-.239.196-.466.404-.684.618-.014.014-.03.026-.044.04l-.008.008-.074.074-91.953 91.945-.062.062-.014.014c-.025.025-.045.052-.07.077-.204.208-.402.422-.587.648-.04.049-.075.102-.114.152-.163.206-.323.415-.471.635-.067.1-.123.206-.187.308-.108.177-.221.349-.319.534-.152.283-.29.575-.414.871-.004.01-.01.019-.014.029-.005.011-.007.022-.012.033-.122.296-.23.597-.322.905-.064.213-.111.427-.161.641-.024.104-.056.207-.076.311-.054.274-.091.549-.122.824-.006.049-.016.097-.021.146-.03.309-.044.618-.046.927 0 .019-.003.037-.003.055v307.711c0 .019.003.037.003.055.002.308.015.617.046.927.005.048.015.096.02.145.031.275.068.551.123.825.021.104.052.206.076.309.05.215.096.43.162.643.092.306.201.607.321.902.005.012.008.024.013.035 0 .001.001.002.001.003.173.417.383.816.611 1.207.058.1.117.201.179.298.227.36.472.711.745 1.042.056.068.12.13.178.196.151.173.299.347.463.511l92.032 92.032c.021.021.042.042.064.063l.013.013c.024.024.051.045.076.068.208.204.423.403.651.589.048.039.1.073.149.111.208.164.418.325.641.474.095.063.196.116.292.177.181.112.359.227.55.329.279.15.566.285.858.408.014.006.027.014.041.02.028.011.056.019.083.03.277.112.558.215.844.302.963.293 1.943.435 2.909.435.011 0 .022-.002.033-.002h130.2c.011 0 .022.002.033.002.652 0 1.309-.065 1.964-.197.008-.002.016-.005.025-.006.307-.062.614-.139.92-.231.293-.089.581-.194.864-.309.022-.009.044-.014.065-.023.014-.006.027-.014.041-.02.292-.122.578-.258.858-.408.19-.101.368-.217.55-.329.097-.06.198-.113.292-.177.222-.149.433-.309.641-.474.049-.038.1-.072.149-.111.227-.187.442-.384.651-.589.024-.024.051-.044.076-.068l.013-.013c.021-.021.043-.042.064-.063l92.032-92.032c.165-.165.314-.34.466-.515.056-.065.117-.124.173-.191.274-.331.519-.683.747-1.044.061-.097.119-.197.178-.296.228-.391.439-.791.611-1.208 0-.001.001-.002.001-.003.005-.012.008-.024.013-.035.121-.295.229-.596.321-.902.064-.211.11-.423.16-.634.025-.106.057-.211.078-.318.054-.274.091-.549.122-.824.005-.049.016-.096.021-.146.03-.309.044-.618.046-.927 0-.019.003-.037.003-.055v-.01-307.584V102.14c0-.019-.003-.037-.003-.055zm-98.621-74.324l70.859 70.853-53.208 22.041-39.693-39.685 22.042-53.209zm5.259 108.896v238.676l-43.302 43.301h-61.225l-43.301-43.301V136.657l43.301-43.292h61.226l43.301 43.292zM306.102 20.079l-22.041 53.208h-56.126l-22.041-53.208h100.208zm-118.757 7.683l22.041 53.208-39.694 39.686-53.208-22.041 70.861-70.853zm-78.546 89.403l53.208 22.041v233.577l-53.208 22.041V117.165zm78.546 367.071l-70.861-70.861 53.208-22.041 39.695 39.695-22.042 53.207zm18.55 7.684l22.041-53.208h56.126l22.041 53.208H205.895zm118.758-7.683l-22.041-53.208 39.696-39.696 53.208 22.041-70.863 70.863zm78.545-89.413l-53.208-22.041V139.206l53.208-22.041v277.659z"/>
  <path d="M305.952 278.745c-5.545 0-10.039 4.495-10.039 10.039v64.257c0 5.545 4.495 10.039 10.039 10.039 5.545 0 10.039-4.495 10.039-10.039v-64.257c.001-5.544-4.494-10.039-10.039-10.039zM305.952 247.965c-12.919 0-12.942 20.078 0 20.078 12.92 0 12.941-20.078 0-20.078z"/>
</svg>
