<svg xmlns="http://www.w3.org/2000/svg" viewBox="0 0 512 512">
  <path d="M362.004 246.048c-5.52 0-10 4.48-10 10s4.48 10 10 10 10-4.48 10-10-4.48-10-10-10z"/>
  <path d="M510.643 251.022c-.022-.039-.037-.08-.06-.118L390.579 50.898c-.007-.012-.016-.022-.023-.033-1.809-2.994-5.071-4.793-8.472-4.817-.027 0-.053-.005-.08-.005H129.997c-.022 0-.044.004-.067.004-3.549.02-6.744 1.937-8.485 4.818-.007.012-.016.022-.023.033L1.418 250.904c-.023.038-.038.08-.06.118-1.829 3.135-1.792 6.981 0 10.053.022.039.037.08.06.118l120.004 200.006c.007.012.016.022.023.033 1.775 2.937 5.022 4.724 8.542 4.724.01 0 .02-.002.03-.002h251.965c.01 0 .02.002.03.002 3.531 0 6.779-1.791 8.565-4.757l120.004-200.006c.023-.038.038-.08.06-.118 1.778-3.044 1.844-6.897.002-10.053zM382.215 75.831l102.13 170.217h-68.884l-67.354-110.522 34.108-59.695zm15.872 180.139l-69.102 110.081H183.017L113.915 255.97l66.99-109.925h150.191l66.991 109.925zM364.774 66.043l-34.284 60.002H181.512l-34.283-60.002h217.545zm-234.988 9.789l34.108 59.695L96.54 246.048H27.656l102.13-170.216zm0 360.434L27.656 266.049h68.97l68.276 108.764-35.116 61.453zm17.443 9.788l34.287-60.002h148.968l34.287 60.002H147.229zm234.986-9.787l-35.116-61.452 68.276-108.765h68.97l-102.13 170.217z"/>
  <path d="M347.031 282.049c-4.657-2.97-10.838-1.604-13.809 3.053l-29.071 45.571c-2.97 4.656-1.604 10.838 3.053 13.809 4.666 2.976 10.844 1.595 13.809-3.053l29.071-45.571c2.97-4.656 1.603-10.839-3.053-13.809z"/>
</svg>
