<svg xmlns="http://www.w3.org/2000/svg" viewBox="0 0 511.999 511.999">
  <path d="M412.53 94.618c0-.029-.005-.056-.006-.085-.003-.411-.028-.821-.082-1.232-.003-.021-.008-.041-.011-.061-.052-.373-.128-.744-.224-1.113-.024-.095-.052-.19-.079-.285-.086-.299-.188-.595-.303-.889-.036-.092-.069-.186-.107-.276-.157-.364-.328-.726-.532-1.078s-.43-.682-.668-.999c-.059-.078-.122-.153-.184-.229-.198-.248-.404-.485-.62-.711-.067-.07-.135-.141-.205-.209-.273-.268-.557-.522-.856-.754-.015-.012-.029-.025-.044-.037-.329-.253-.675-.481-1.029-.69-.024-.014-.044-.032-.068-.046L261.018 1.342c-.026-.015-.053-.024-.079-.039-.354-.201-.721-.385-1.1-.542-.028-.011-.057-.02-.084-.031-.339-.137-.689-.253-1.045-.352-.102-.029-.206-.054-.308-.079-.291-.071-.587-.129-.888-.175-.108-.016-.216-.036-.325-.049-.38-.044-.763-.073-1.154-.074h-.068c-.391.001-.774.03-1.154.074-.108.013-.217.033-.325.049-.301.045-.596.103-.888.175-.103.025-.206.05-.308.079-.356.1-.706.216-1.045.352-.028.011-.057.019-.084.031-.38.158-.746.34-1.1.542-.026.015-.053.024-.079.039L104.488 85.923c-.026.015-.048.034-.074.049-.352.207-.694.433-1.021.684-.02.016-.039.033-.059.049-.293.229-.572.478-.841.741-.072.07-.141.143-.211.215-.215.224-.42.459-.615.705-.062.078-.126.154-.187.233-.237.317-.464.647-.667.998-.204.352-.375.713-.532 1.078-.039.091-.071.184-.107.276-.115.294-.218.59-.303.889-.027.094-.055.189-.079.285-.094.369-.173.74-.224 1.113-.003.021-.008.041-.011.061-.054.411-.078.821-.082 1.232 0 .029-.006.056-.006.085v322.762c0 .029.005.056.006.085.003.411.028.821.082 1.232.003.021.008.041.011.061.051.373.128.744.224 1.113.024.095.052.19.079.285.086.299.188.595.303.889.036.092.069.186.107.276.157.364.328.726.532 1.078.033.058.076.107.11.165.195.322.399.637.628.936.156.203.33.384.499.571.123.138.237.283.368.415.212.212.442.4.67.589.108.09.208.19.32.276.258.198.532.369.806.54.093.057.177.127.271.182l.054.031.036.021 146.402 84.529c.026.015.053.024.079.039.355.202.722.385 1.102.542.026.011.053.018.079.029.341.138.694.255 1.053.355.1.028.201.052.301.077.295.073.596.132.901.178.103.016.207.035.311.047.392.046.788.077 1.193.077s.801-.031 1.193-.077c.104-.012.207-.032.311-.047.305-.046.606-.104.902-.178.1-.025.201-.049.301-.077.359-.1.711-.217 1.053-.355.026-.01.053-.018.079-.029.38-.158.747-.341 1.102-.542.026-.014.053-.024.079-.039l146.401-84.528.036-.021.054-.031c.095-.055.179-.123.271-.182.274-.171.548-.342.806-.54.113-.086.212-.186.321-.276.228-.19.457-.377.67-.589.13-.13.244-.275.366-.413.17-.189.345-.37.502-.574.229-.298.433-.612.628-.934.035-.058.078-.107.111-.167.204-.352.375-.713.532-1.078.039-.091.071-.184.107-.276.115-.294.218-.59.303-.889.027-.094.055-.189.079-.285.094-.369.172-.74.224-1.113.003-.021.008-.041.011-.061.054-.411.078-.821.082-1.232 0-.029.006-.056.006-.085V94.618h.004zM266.037 27.426l116.376 67.193-51.151 29.536-65.225-37.663V27.426zm-20.078 0v59.067l-65.225 37.663-51.151-29.538 116.376-67.192zm-126.415 84.583l51.15 29.536v228.909l-51.15 29.536V112.009zm126.415 372.565l-116.376-67.193 51.151-29.537 65.225 37.663v59.067zm10.039-76.457l-65.225-37.663V141.545l65.225-37.663 65.225 37.663v228.909l-65.225 37.663zm10.039 76.456v-59.067l65.225-37.663 51.151 29.537-116.376 67.193zm126.415-84.583l-51.15-29.536V141.545l51.15-29.536V399.99z"/>
  <path d="M295.121 155.994c-12.919 0-12.941 20.079 0 20.079 12.92-.001 12.941-20.079 0-20.079zM295.121 185.61c-5.544 0-10.039 4.496-10.039 10.039v47.185c0 5.544 4.496 10.039 10.039 10.039s10.039-4.496 10.039-10.039v-47.185c0-5.544-4.495-10.039-10.039-10.039z"/>
</svg>
